<?xml version="1.0" encoding="utf-8"?>
<!-- Generator: Adobe Illustrator 25.2.3, SVG Export Plug-In . SVG Version: 6.00 Build 0)  -->
<svg version="1.1" id="Layer_1" xmlns="http://www.w3.org/2000/svg" xmlns:xlink="http://www.w3.org/1999/xlink" x="0px" y="0px"
	 viewBox="0 0 248.2 87.8" style="enable-background:new 0 0 248.2 87.8;" xml:space="preserve">
<style type="text/css">
	.st0{fill:#A9BBA6;}
	.st1{fill:#6F876A;}
</style>
<g>
	<g>
		<path class="st0" d="M24.7,61.3h11.8v2.8h-8.3v3.3H36v2.7h-7.8v5.5h-3.5V61.3z"/>
		<path class="st0" d="M45.9,72.4l-1.3,3.3H41l5.8-14.4h4.5l6.1,14.4h-3.8l-1.3-3.3H45.9z M51.3,69.6c-1.3-3.3-2-5-2.3-6.1l0,0
			c-0.3,1.1-1.1,3.3-2.2,6.1H51.3z"/>
		<path class="st0" d="M65.2,71.3c0.4,1.2,1.4,2.1,3.8,2.1c2.2,0,2.9-0.7,2.9-1.6c0-1-0.7-1.5-3.7-2.1c-5-0.9-5.9-2.5-5.9-4.4
			c0-2.9,2.8-4.3,6.2-4.3c4.9,0,6.3,2.5,6.4,4.2h-3.5c-0.2-0.7-0.7-1.7-3-1.7c-1.7,0-2.5,0.5-2.5,1.5c0,0.8,0.6,1.2,3.3,1.7
			c5.5,1,6.3,2.6,6.3,4.7c0,2.5-2,4.5-6.8,4.5c-4.5,0-6.5-2-7-4.6C61.7,71.3,65.2,71.3,65.2,71.3z"/>
		<path class="st0" d="M85.6,64.1h-5.1v-2.8h13.6v2.8h-5v11.6h-3.5V64.1z"/>
		<path class="st0" d="M124.4,68.4c0,4-2.7,7.5-7.9,7.5c-4.9,0-7.7-3.3-7.7-7.5c0-3.9,2.9-7.5,7.8-7.5
			C121.7,61,124.4,64.5,124.4,68.4z M112.5,68.4c0,2.7,1.4,4.8,4.2,4.8c2.9,0,4-2.4,4-4.8c0-2.5-1.2-4.8-4.1-4.8
			C113.8,63.7,112.5,66,112.5,68.4z M120.9,73.4l4.4,3l-1.9,2.2l-5.2-3.5L120.9,73.4z"/>
		<path class="st0" d="M134.5,61.3v8.1c0,3.1,1.6,3.8,3.4,3.8c1.9,0,3.1-0.8,3.1-3.8v-8.1h3.5v8.2c0,4.4-2.4,6.4-6.7,6.4
			c-4.1,0-6.8-1.9-6.8-6.4v-8.3h3.5V61.3z"/>
		<path class="st0" d="M155.4,61.3v14.4h-3.5V61.3H155.4z"/>
		<path class="st0" d="M161.8,73.1l8.7-9.1h-8.2v-2.7h12.6V64l-8.5,8.9h9.2l-0.4,2.7h-13.3v-2.5H161.8z"/>
		<path class="st0" d="M180.3,73.1L189,64h-8.2v-2.7h12.6V64l-8.5,8.9h9.2l-0.4,2.7h-13.3v-2.5H180.3z"/>
		<path class="st0" d="M211.6,69.6h-8v3.3h8.9l-0.4,2.8h-12V61.3H212v2.8h-8.4v2.7h8V69.6z"/>
		<path class="st0" d="M221,71.3c0.4,1.2,1.4,2.1,3.8,2.1c2.2,0,2.9-0.7,2.9-1.6c0-1-0.7-1.5-3.7-2.1c-5-0.9-5.9-2.5-5.9-4.4
			c0-2.9,2.8-4.3,6.2-4.3c4.9,0,6.3,2.5,6.4,4.2h-3.5c-0.2-0.7-0.7-1.7-3-1.7c-1.7,0-2.5,0.5-2.5,1.5c0,0.8,0.6,1.2,3.3,1.7
			c5.5,1,6.3,2.6,6.3,4.7c0,2.5-2,4.5-6.8,4.5c-4.5,0-6.5-2-7-4.6C217.5,71.3,221,71.3,221,71.3z"/>
	</g>
	<g>
		<path class="st0" d="M244.1,53.9v28.6H10.8V53.9H244.1 M245.1,52.9H9.8v30.6h235.3V52.9L245.1,52.9z"/>
	</g>
</g>
<g>
	<path class="st1" d="M54.8,13.8c0,0.7-0.1,1.2-0.2,1.5c-0.1,0.3-0.3,0.6-0.6,0.7s-0.5,0.2-0.8,0.2s-0.6,0-0.9,0c-0.7,0-1.4,0-2,0
		s-1.2,0-1.8,0s-1.2,0-1.9,0s-1.4,0-2.3,0c-0.9,0-2,0.1-3.3,0.2c-1.3,0.2-2.5,0.4-3.8,0.6c-1.2,0.2-2.4,0.5-3.4,0.8
		s-1.7,0.5-2.1,0.7c-0.2,0.1-0.3,0.3-0.5,0.5s-0.3,0.4-0.4,0.7s-0.2,0.5-0.3,0.8c-0.1,0.3-0.1,0.5-0.1,0.7c-0.2,2.3-0.5,4.6-0.7,6.9
		c-0.3,2.3-0.5,4.6-0.8,6.8c-0.2,2.3-0.4,4.5-0.6,6.7s-0.2,4.4-0.2,6.6c0,0.4,0,0.9,0.1,1.7c0.1,0.7,0.2,1.5,0.3,2.2
		c0.1,0.8,0.2,1.4,0.3,2s0.1,0.9,0.1,1c0,0.4-0.1,0.9-0.2,1.3c-0.1,0.5-0.3,0.9-0.5,1.2s-0.5,0.7-0.9,0.9s-0.7,0.3-1.1,0.3
		c-0.3,0-0.5-0.1-0.9-0.2c-0.3-0.2-0.6-0.4-0.9-0.6s-0.6-0.6-0.8-0.9c-0.2-0.4-0.4-0.8-0.6-1.2c-0.2-0.5-0.3-1.2-0.4-1.9
		c-0.1-0.7-0.2-1.5-0.3-2.2s-0.1-1.5-0.1-2.3s0-1.5,0-2.1s0-1.2,0-1.6c0-0.4,0-0.7,0-0.9c0-0.7,0.1-1.7,0.2-3.1
		c0.1-1.4,0.3-3,0.5-4.8s0.4-3.6,0.6-5.5s0.4-3.6,0.6-5.2c0.2-1.6,0.4-2.8,0.5-3.9s0.2-1.5,0.2-1.6c0-0.4-0.1-0.6-0.2-0.8
		c-0.2-0.2-0.3-0.3-0.5-0.3s-0.4-0.1-0.5,0c-0.2,0-0.3,0-0.3,0c-0.8,0-1.9,0.1-3.2,0.2c-1.3,0.2-2.7,0.3-4.2,0.5s-3,0.4-4.6,0.5
		c-1.6,0.2-3,0.2-4.3,0.2c-0.3,0-0.6,0-0.9,0s-0.6,0-0.9-0.1s-0.6-0.2-1-0.4c-0.3-0.2-0.6-0.4-1-0.8c0-0.2,0-0.5,0-0.9
		s0-0.7,0.1-1.1s0.2-0.7,0.5-1s0.6-0.5,1-0.6c1-0.2,2.1-0.4,3.4-0.5s2.5-0.2,3.9-0.3c1.3-0.1,2.6-0.2,3.8-0.3
		c1.2-0.1,2.3-0.2,3.3-0.3c0.7-0.1,1.5-0.2,2.5-0.3s2-0.3,3.1-0.4c1.2,0.2,2.2,0,3.2-0.2s1.8-0.3,2.5-0.4c1.3-0.3,2.7-0.6,4.2-0.9
		c1.5-0.4,3-0.7,4.5-1s3-0.6,4.5-0.8c1.5-0.2,2.9-0.3,4.3-0.3c0.2,0,0.4,0,0.8,0c0.4,0,0.8,0,1.3,0.1c0.5,0,1,0.1,1.5,0.2
		s1.1,0.2,1.6,0.4c0.2,0.1,0.5,0.2,0.6,0.4c0.2,0.2,0.3,0.5,0.5,0.7c0.1,0.3,0.2,0.5,0.3,0.8C54.7,13.4,54.8,13.6,54.8,13.8z"/>
	<path class="st1" d="M97.5,45.8c0,0.2,0,0.4-0.1,0.7s-0.2,0.5-0.3,0.8c-0.1,0.3-0.3,0.6-0.4,0.8c-0.2,0.3-0.3,0.5-0.4,0.7
		c-0.4,0.6-0.9,1.1-1.6,1.7s-1.4,1.1-2.2,1.6S90.9,53,90,53.3c-0.9,0.3-1.9,0.4-2.9,0.4c-1.3,0-2.4-0.2-3.5-0.6s-2-1.1-2.8-2
		s-1.5-2.1-2.1-3.6s-1-3.3-1.4-5.3C76.7,43,76,44,75.1,45c-0.8,1.1-1.7,2.2-2.7,3.3c-1,1.1-2,2.2-3.1,3.3s-2.2,2.1-3.3,2.9
		c-1.1,0.9-2.2,1.5-3.2,2.1c-1.1,0.5-2.1,0.8-3.1,0.8c-0.2,0-0.6-0.1-1.1-0.4s-1-0.7-1.5-1.1c-0.5-0.5-1-1-1.5-1.6s-0.8-1.2-0.9-1.8
		c-0.4-1.3-0.6-2.6-0.6-4s0.1-2.7,0.3-4c0.3-1.5,0.7-3,1.2-4.6s1-3.2,1.6-4.7c0.5-1.5,1-3,1.5-4.4c0.4-1.4,0.7-2.6,0.8-3.6
		c0.1-0.2,0.3-0.3,0.5-0.5c0.3-0.2,0.5-0.4,0.9-0.6c0.3-0.2,0.6-0.3,0.9-0.5c0.3-0.1,0.5-0.2,0.7-0.2c0.3,0,0.5,0.1,0.9,0.3
		c0.3,0.2,0.6,0.4,0.9,0.7c0.3,0.3,0.5,0.5,0.6,0.8c0.2,0.3,0.2,0.5,0.2,0.8c0,0.2-0.1,0.5-0.2,0.9s-0.3,0.9-0.5,1.4
		S64,31.4,63.7,32c-0.3,0.6-0.5,1.1-0.8,1.6c-0.5,1.2-1,2.3-1.5,3.3S60.5,39,60.1,40c-0.4,1-0.7,2.1-1,3.3c-0.3,1.1-0.4,2.4-0.4,3.7
		c0,0.4,0,0.8,0.1,1.3s0.2,1.1,0.4,1.6s0.4,1,0.6,1.3s0.6,0.5,0.9,0.5c0.4,0,0.7-0.1,1.2-0.3c0.4-0.2,0.9-0.4,1.4-0.6
		c0.5-0.3,0.9-0.5,1.3-0.8s0.8-0.6,1.1-0.8c0.9-0.6,1.7-1.4,2.6-2.2c0.9-0.9,1.7-1.7,2.4-2.6c0.8-0.9,1.4-1.7,2-2.5s1.1-1.4,1.4-1.9
		c0.5-0.8,0.9-1.6,1.4-2.5c0.4-0.9,0.8-1.8,1.2-2.7c0.4-0.9,0.8-1.8,1.2-2.7c0.4-0.9,0.8-1.6,1.2-2.3c0.4-0.7,0.9-1.2,1.4-1.6
		c0.5-0.4,1-0.6,1.6-0.6c0.5,0,0.9,0.1,1.1,0.3c0.3,0.2,0.4,0.4,0.6,0.7c0.1,0.3,0.2,0.5,0.2,0.9c0,0.3,0,0.6,0,0.9
		c0,0.2-0.1,0.6-0.4,1.2c-0.3,0.6-0.5,1.3-0.9,2.2c-0.3,0.8-0.6,1.8-0.9,2.8s-0.4,2-0.4,3c0,1.4,0.2,2.7,0.5,4
		c0.3,1.2,0.7,2.3,1.3,3.2c0.5,0.9,1.2,1.6,2,2.1s1.6,0.8,2.5,0.8c1,0,2.1-0.2,3.2-0.6s2.3-1,3.3-1.7c0.1-0.1,0.2-0.2,0.4-0.4
		c0.2-0.2,0.4-0.4,0.7-0.6c0.3-0.2,0.5-0.4,0.7-0.5c0.2-0.2,0.4-0.2,0.5-0.2c0.2,0,0.3,0.1,0.5,0.2C97.4,45.4,97.5,45.5,97.5,45.8z"
		/>
	<path class="st1" d="M171,19.9c0.2,0,0.5,0.1,0.6,0.4c0.2,0.3,0.3,0.5,0.3,0.8c0,0.4-0.2,0.9-0.5,1.5s-0.8,1.1-1.3,1.7
		c-0.5,0.6-1.2,1.1-1.9,1.7c-0.7,0.5-1.5,1-2.4,1.4c-1.2,0.5-2.6,1-4,1.5c-1.5,0.5-3,0.9-4.7,1.3c-1.6,0.4-3.3,0.7-5.1,1
		s-3.5,0.5-5.3,0.6c-0.1,0-0.2,0.2-0.3,0.6c-0.1,0.4-0.2,0.9-0.4,1.6c-0.1,0.6-0.3,1.3-0.4,2.1c-0.1,0.8-0.2,1.5-0.3,2.3
		c-0.1,0.7-0.2,1.4-0.3,2s-0.2,1-0.2,1.3c-0.2,1.2-0.4,2.2-0.5,3.1c-0.1,0.9-0.3,1.8-0.4,2.6c-0.1,0.8-0.2,1.6-0.2,2.3
		c-0.1,0.7-0.1,1.5-0.1,2.4c0,0.5,0,0.9,0,1.2c0,0.4,0,0.7,0,1.1s0,0.7,0,1.1s0,0.8-0.1,1.2c0,0.1-0.2,0.3-0.4,0.6
		c-0.3,0.2-0.5,0.5-0.9,0.7c-0.3,0.2-0.7,0.4-1,0.6s-0.5,0.3-0.7,0.3c-0.5,0-1-0.2-1.4-0.5c-0.4-0.4-0.6-0.8-0.8-1.2
		c-0.2-0.5-0.3-0.9-0.4-1.4c-0.1-0.4-0.1-0.7-0.1-0.9c0-1.8,0.1-3.5,0.3-5.1s0.4-3.2,0.7-4.8s0.5-3.3,0.9-5.1
		c0.3-1.8,0.6-3.8,0.9-5.9c-0.2-0.4-0.4-0.6-0.8-0.8c-0.4-0.1-0.7-0.2-1.1-0.2c-0.3,0-0.8,0-1.4,0c-0.6,0-1.3,0-2.1,0s-1.7,0-2.7,0
		s-2,0-3,0c-1.1,0-2,0.1-2.9,0.2c-0.9,0.1-1.7,0.3-2.5,0.6s-1.5,0.7-2.2,1.1c-0.7,0.5-1.4,1.1-2.1,1.8s-1.4,1.5-2.1,2.5
		c-0.7,0.9-1.3,2-1.9,3.1s-1.2,2.2-1.8,3.4c-0.6,1.2-1.1,2.3-1.6,3.5c-0.4,0.9-0.7,1.9-1.1,2.9s-0.7,2.1-1,3.2
		c-0.2,0.6-0.3,1.2-0.4,1.6c-0.1,0.5-0.2,1-0.4,1.5c0,0.2-0.2,0.3-0.6,0.5c-0.3,0.2-0.7,0.3-1.1,0.4s-0.8,0.2-1.2,0.3
		c-0.4,0.1-0.6,0.1-0.8,0.1c-1.5,0.1-2.4-1.5-2.6-4.7c-0.1-0.9-0.1-1.7-0.1-2.4c0-0.7,0-1.4,0.1-2.1c0-0.7,0.1-1.4,0.2-2.1
		s0.2-1.6,0.2-2.5c0.1-1.1,0.2-2.5,0.4-4s0.3-3,0.5-4.5s0.4-3,0.6-4.3s0.5-2.5,0.7-3.4c0.2-1,0.6-1.8,1-2.3s1.1-0.8,1.9-0.8
		c0.2,0,0.5,0.1,0.7,0.2c0.3,0.1,0.5,0.3,0.7,0.5s0.4,0.4,0.5,0.6c0.1,0.2,0.2,0.4,0.2,0.6c0,0.5,0,1.1,0,1.8c0,0.6-0.1,1.3-0.2,2
		s-0.2,1.4-0.4,2.1c-0.2,0.7-0.3,1.4-0.5,2c-0.3,1.3-0.5,2.3-0.7,3.2s-0.3,1.8-0.4,2.6s-0.2,1.7-0.3,2.7c-0.1,1-0.3,2.1-0.4,3.5
		c0.6-1.3,1.1-2.4,1.5-3.3c0.4-0.9,0.8-1.8,1.2-2.5c0.4-0.8,0.8-1.6,1.2-2.3c0.4-0.8,0.9-1.6,1.5-2.6c1.5-2.6,3.1-4.6,4.6-6
		c1.5-1.5,3.1-2.6,4.7-3.3c0.5-0.2,0.9-0.4,1.5-0.5c0.5-0.1,1-0.3,1.5-0.3c0.5-0.1,0.9-0.1,1.3-0.2c0.4,0,0.8-0.1,1-0.1s0.5,0,0.9,0
		c0.3,0.1,0.7,0.1,1.2,0.2c1.3,0.2,2.5,0.3,3.6,0.4c1.1,0,2.2,0,3.1,0c0.9-0.1,1.7-0.1,2.4-0.3c0.7-0.1,1.1-0.2,1.5-0.3
		c0.5-0.2,1-0.7,1.5-1.6c0.5-0.9,1-2.3,1.4-3.9c0.1-0.4,0.2-0.9,0.3-1.6c0.1-0.7,0.3-1.4,0.4-2.3s0.3-1.7,0.5-2.6
		c0.2-0.9,0.3-1.7,0.4-2.5c0.1-0.8,0.2-1.5,0.3-2.1s0.1-1.1,0.1-1.4s0.1-0.6,0.3-1s0.5-0.7,0.8-1s0.6-0.5,0.9-0.7
		c0.3-0.2,0.5-0.3,0.7-0.3c0.3,0,0.6,0.1,1,0.3c0.3,0.2,0.6,0.5,0.8,0.8s0.4,0.6,0.5,0.9s0.2,0.5,0.2,0.7c0,0.1,0,0.4-0.1,0.7
		c-0.1,0.4-0.1,0.9-0.2,1.4c-0.1,0.5-0.2,1.1-0.3,1.8c-0.1,0.6-0.2,1.2-0.3,1.8s-0.2,1.1-0.3,1.5c-0.1,0.5-0.2,0.8-0.2,0.9
		c-0.3,1.3-0.6,2.5-0.8,3.3c-0.2,0.9-0.4,1.6-0.5,2.2c-0.1,0.6-0.2,1.1-0.3,1.4c-0.1,0.4-0.1,0.7-0.1,1c0,0.5,0.1,0.8,0.2,1
		c0.1,0.2,0.4,0.3,0.7,0.3c0.1,0,0.4,0,1.1-0.1c0.6-0.1,1.4-0.2,2.4-0.3s2-0.3,3.2-0.5s2.3-0.4,3.5-0.7s2.3-0.5,3.4-0.8
		c1.1-0.3,2.1-0.6,2.9-1c0.8-0.4,1.5-0.7,2.2-1.1c0.7-0.4,1.3-0.7,1.8-1s0.9-0.5,1.3-0.7C170.6,20,170.8,19.9,171,19.9z"/>
	<path class="st1" d="M195.2,43.9c0,0.2-0.1,0.5-0.4,0.9c-0.3,0.4-0.7,0.8-1.2,1.3s-1,1-1.6,1.5s-1.2,1-1.8,1.5
		c-3.3,2.6-6.3,4.5-8.8,5.8s-4.8,1.9-6.8,1.9c-0.9,0-1.8-0.2-2.7-0.6s-1.8-1.1-2.6-2.1s-1.4-2.3-1.9-3.9s-0.7-3.6-0.7-6.1
		c0-1,0-2.1,0.1-3.3s0.2-2.5,0.3-3.9c0.1-1.3,0.3-2.7,0.5-4.1c0.2-1.4,0.4-2.8,0.6-4.1c0.2-1.3,0.4-2.6,0.6-3.8
		c0.2-1.2,0.4-2.3,0.6-3.2c0.2-0.8,0.3-1.7,0.5-2.5c0.2-0.9,0.4-1.8,0.6-2.6c0.2-0.9,0.4-1.7,0.6-2.5c0.2-0.8,0.4-1.5,0.5-2.1
		c0.2-0.6,0.4-1.2,0.7-1.9c0.3-0.7,0.7-1.3,1.1-1.9c0.4-0.6,0.8-1.1,1.3-1.5s0.9-0.6,1.4-0.6s0.9,0.1,1.2,0.2s0.5,0.3,0.7,0.6
		c0.2,0.3,0.3,0.5,0.3,0.9c0.1,0.3,0.1,0.7,0.1,1.1c0,0.9-0.2,2.1-0.5,3.6c-0.4,1.5-0.8,3.1-1.3,4.7c-0.5,1.7-1,3.4-1.5,5
		c-0.5,1.7-0.9,3.2-1.3,4.5c-0.1,0.5-0.2,1.1-0.4,1.9c-0.1,0.8-0.3,1.6-0.4,2.6c-0.1,0.9-0.2,1.9-0.3,3c-0.1,1-0.2,2.1-0.3,3.1
		s-0.1,2-0.2,3c0,1-0.1,1.9-0.1,2.7c0,1.8,0.1,3.2,0.4,4.3c0.3,1.1,0.6,1.9,1.1,2.6c0.4,0.6,0.9,1,1.5,1.2c0.5,0.2,1.1,0.3,1.6,0.3
		c0.9,0,1.8-0.1,2.8-0.4s2-0.7,3.1-1.3c1.1-0.6,2.3-1.3,3.6-2.2c1.3-0.9,2.7-1.9,4.3-3.1c0.4-0.3,0.8-0.6,1.1-1
		c0.3-0.3,0.6-0.6,0.9-0.8c0.3-0.3,0.5-0.5,0.7-0.6s0.4-0.2,0.6-0.2c0.3,0,0.6,0.2,0.9,0.5C195.1,42.6,195.2,43.1,195.2,43.9z"/>
	<path class="st1" d="M232.4,35.1c0,0.3-0.2,0.9-0.7,1.7c-1.1,1.6-2.4,3.3-3.8,4.9s-2.9,3.2-4.5,4.7s-3.3,2.9-5,4.2
		c-1.7,1.3-3.5,2.4-5.2,3.3c-1.8,0.9-3.5,1.7-5.3,2.2c-1.7,0.5-3.4,0.7-5.1,0.7c-3.5,0-6.2-1-8.2-3.1c-1.9-2-2.9-5.1-2.9-9.3
		c0-3.5,0.5-6.8,1.6-10.1c1.1-3.3,2.9-6.4,5.5-9.4c0.5-0.5,1-1,1.6-1.5s1.2-0.9,1.9-1.3c0.7-0.4,1.4-0.7,2.1-0.9
		c0.7-0.2,1.4-0.4,2.2-0.4c0.2,0,0.4,0,0.7,0.1c0.3,0,0.6,0.1,1,0.2c0.4,0.1,0.7,0.2,1,0.4s0.6,0.4,0.8,0.6c0.6,0.7,1.1,1.4,1.5,2.2
		c0.4,0.7,0.6,1.6,0.6,2.5c0,1-0.1,2-0.3,3c-0.3,1-0.7,2-1.4,3c-0.6,1-1.5,2.1-2.6,3.2c-1.1,1.1-2.3,2.3-3.8,3.5
		c-0.9,0.8-2,1.7-3.1,2.6s-2.5,2-4.2,3c0,2.1,0.6,3.8,1.9,4.9s3.1,1.7,5.3,1.7c1.3,0,2.5-0.2,3.8-0.5s2.5-0.8,3.8-1.3
		c1.2-0.5,2.4-1.2,3.6-1.8s2.2-1.4,3.2-2.1c1.9-1.4,3.6-2.7,5.1-4.1s3-2.8,4.5-4.3l1.8-1.8c1.1-0.9,1.9-1.4,2.3-1.4
		C232.3,34.5,232.4,34.7,232.4,35.1z M207.2,28.5c0-0.3-0.1-0.7-0.1-1c-0.1-0.3-0.2-0.6-0.3-0.8c-0.2-0.2-0.3-0.4-0.5-0.6
		c-0.2-0.1-0.4-0.2-0.7-0.2c-1.2,0.1-2.3,0.8-3.5,2.1c-1.2,1.4-2.3,3.1-3.3,5.4c-0.2,0.5-0.5,1-0.6,1.6c-0.2,0.6-0.4,1.2-0.5,1.8
		c-0.2,0.6-0.3,1.2-0.4,1.9c-0.1,0.6-0.2,1.2-0.3,1.6c1.1-0.9,2.2-1.6,3.2-2.4c1-0.7,1.9-1.5,2.7-2.2c0.5-0.5,1.1-1,1.6-1.6
		s1-1.1,1.5-1.8c0.5-0.6,0.8-1.3,1.1-1.9C207.1,29.9,207.2,29.2,207.2,28.5z"/>
	<path class="st1" d="M246.3,50.7c0,1.1-0.2,2.2-0.6,3.3c-0.4,1.1-0.9,2.1-1.6,3c-0.7,0.9-1.4,1.8-2.3,2.6c-0.9,0.8-1.8,1.5-2.7,2.1
		s-1.9,1-2.8,1.4c-0.9,0.3-1.8,0.5-2.6,0.5c-1.1,0-1.8-0.2-2.2-0.7s-0.5-1.2-0.5-2s0.2-1.4,0.5-1.9c0.3-0.4,0.7-0.8,1.3-1.1
		c0.1,0,0.2,0,0.4-0.1c0.2,0,0.4-0.1,0.6-0.1c0.2,0,0.4,0,0.6,0c0.2,0,0.4,0,0.5,0c0.2,0,0.4,0,0.7-0.1s0.6-0.2,0.9-0.3
		c0.3-0.1,0.7-0.3,1-0.5c0.4-0.2,0.7-0.4,1-0.6c0.9-0.7,1.5-1.5,1.9-2.4s0.5-1.6,0.5-2.3c0-0.9-0.3-1.7-0.8-2.4
		c-0.5-0.7-1.2-1.5-2.1-2.2c-0.8-0.7-1.7-1.4-2.7-2.1c-1-0.7-1.9-1.5-2.7-2.3s-1.5-1.7-2.1-2.6c-0.5-0.9-0.8-1.9-0.8-3
		c0-0.5,0.1-1.1,0.2-1.7c0.1-0.6,0.3-1.2,0.6-1.8c0.2-0.6,0.5-1.2,0.8-1.7c0.3-0.6,0.6-1.1,0.9-1.5c0.5-0.7,1.1-1.5,1.7-2.2
		c0.6-0.7,1.3-1.4,1.9-1.9c0.6-0.6,1.3-1,1.9-1.4c0.6-0.3,1.2-0.5,1.7-0.5c1.5,0,2.2,0.9,2.2,2.6c0,0.6-0.2,1.3-0.7,2.1
		s-1.1,1.6-1.8,2.2c-1.1,1-2,1.9-2.8,2.6c-0.8,0.7-1.5,1.4-2.2,2.2c0.5,0.7,1.1,1.4,1.6,2c0.6,0.6,1.2,1.2,1.9,1.8
		c0.6,0.6,1.3,1.1,2,1.7c0.7,0.5,1.3,1.1,2,1.7c0.6,0.6,1.2,1.1,1.8,1.7s1.1,1.2,1.5,1.8c0.4,0.6,0.8,1.3,1.1,2
		C246.2,49.2,246.3,49.9,246.3,50.7z"/>
</g>
</svg>
